<?xml version="1.0" encoding="UTF-8"?>
<svg version="1.1" xmlns="http://www.w3.org/2000/svg" width="109" height="18">
<path d="M0 0 C3.26628532 0.22526106 5.02037161 0.34661771 7.625 2.25 C7.955 3.24 8.285 4.23 8.625 5.25 C9.388125 4.92 10.15125 4.59 10.9375 4.25 C13.625 3.25 13.625 3.25 16.625 3.25 C16.625 2.59 16.625 1.93 16.625 1.25 C20.09 0.755 20.09 0.755 23.625 0.25 C23.295 1.57 22.965 2.89 22.625 4.25 C23.57375 4.25 24.5225 4.25 25.5 4.25 C27.20833333 4.25 28.91666667 4.25 30.625 4.25 C31.43710937 4.15460937 32.24921875 4.05921875 33.0859375 3.9609375 C34.52839844 3.79464844 34.52839844 3.79464844 36 3.625 C37.43472656 3.45097656 37.43472656 3.45097656 38.8984375 3.2734375 C41.7891619 3.24858887 43.19940259 3.74406038 45.625 5.25 C45.625 4.26 45.625 3.27 45.625 2.25 C47.275 1.59 48.925 0.93 50.625 0.25 C51.945 1.9 53.265 3.55 54.625 5.25 C54.25375 5.8275 53.8825 6.405 53.5 7 C52.33333333 9.25 52.33333333 9.25 53.5 11.5 C53.87125 12.0775 54.2425 12.655 54.625 13.25 C52.625 15.25 52.625 15.25 50.1875 15.5 C47.625 15.25 47.625 15.25 44.625 13.25 C43.635 13.91 42.645 14.57 41.625 15.25 C36.31624424 15.80299539 36.31624424 15.80299539 33.75 13.75 C33.37875 13.255 33.0075 12.76 32.625 12.25 C31.965 13.9 31.305 15.55 30.625 17.25 C28.645 17.25 26.665 17.25 24.625 17.25 C24.625 15.93 24.625 14.61 24.625 13.25 C23.635 13.91 22.645 14.57 21.625 15.25 C18.55859375 15.48046875 18.55859375 15.48046875 15.0625 15.4375 C13.90621094 15.43105469 12.74992187 15.42460937 11.55859375 15.41796875 C8.625 15.25 8.625 15.25 6.625 14.25 C6.955 12.6 7.285 10.95 7.625 9.25 C6.635 9.91 5.645 10.57 4.625 11.25 C3.635 11.25 2.645 11.25 1.625 11.25 C0.965 12.57 0.305 13.89 -0.375 15.25 C-1.695 15.25 -3.015 15.25 -4.375 15.25 C-5.67589831 12.64820337 -5.54340078 10.6530812 -5.5625 7.75 C-5.57667969 6.7703125 -5.59085937 5.790625 -5.60546875 4.78125 C-5.23217217 0.6813147 -3.98930591 0.29550414 0 0 Z " fill="#9E4174" transform="translate(7.375,0.75)"/>
<path d="M0 0 C1.19109375 -0.00386719 1.19109375 -0.00386719 2.40625 -0.0078125 C4.5 0.125 4.5 0.125 6.5 1.125 C6.83 1.785 7.16 2.445 7.5 3.125 C9.42638012 3.87743555 9.42638012 3.87743555 11.5 4.125 C12.16 3.795 12.82 3.465 13.5 3.125 C14.16 3.455 14.82 3.785 15.5 4.125 C15.5 3.465 15.5 2.805 15.5 2.125 C18.5 0.125 18.5 0.125 20.6875 0.5 C21.5846875 0.809375 21.5846875 0.809375 22.5 1.125 C22.5 2.115 22.5 3.105 22.5 4.125 C27.42493695 5.16600717 27.42493695 5.16600717 32.1875 4 C34.5 3.125 34.5 3.125 36.8125 4.125 C38.5 6.125 38.5 6.125 38.9375 9.125 C38.5 12.125 38.5 12.125 37.375 14 C34.65781176 15.63031294 32.60347254 15.45515665 29.5 15.125 C28.84 14.465 28.18 13.805 27.5 13.125 C26.84 13.785 26.18 14.445 25.5 15.125 C22.1864424 15.57304715 18.84040137 15.44909862 15.5 15.4375 C14.571875 15.45361328 13.64375 15.46972656 12.6875 15.48632812 C11.800625 15.48697266 10.91375 15.48761719 10 15.48828125 C8.77796875 15.49275269 8.77796875 15.49275269 7.53125 15.49731445 C6.8609375 15.37445068 6.190625 15.25158691 5.5 15.125 C3.31955415 11.85433122 3.40142598 10.87081273 3.5 7.125 C3.17 6.795 2.84 6.465 2.5 6.125 C2.54125 7.23875 2.5825 8.3525 2.625 9.5 C2.5 13.125 2.5 13.125 0.5 15.125 C-2.125 14.75 -2.125 14.75 -4.5 14.125 C-4.5 11.815 -4.5 9.505 -4.5 7.125 C-5.49 6.795 -6.48 6.465 -7.5 6.125 C-7.125 3.6875 -7.125 3.6875 -6.5 1.125 C-4.13386544 -0.05806728 -2.63219264 -0.00854608 0 0 Z " fill="#FA69BA" transform="translate(70.5,0.875)"/>
<path d="M0 0 C3.39914975 1.13304992 4.05254451 2.12518475 6 5 C5.443125 5.86625 5.443125 5.86625 4.875 6.75 C3.70833333 9 3.70833333 9 4.875 11.25 C5.24625 11.8275 5.6175 12.405 6 13 C4 15 4 15 1.5625 15.25 C-1 15 -1 15 -4 13 C-4.99 13.66 -5.98 14.32 -7 15 C-12.30875576 15.55299539 -12.30875576 15.55299539 -14.875 13.5 C-15.24625 13.005 -15.6175 12.51 -16 12 C-16.66 13.65 -17.32 15.3 -18 17 C-19.32 17 -20.64 17 -22 17 C-22.13277344 16.31292969 -22.26554687 15.62585937 -22.40234375 14.91796875 C-22.57894531 14.01691406 -22.75554688 13.11585937 -22.9375 12.1875 C-23.11152344 11.29417969 -23.28554688 10.40085937 -23.46484375 9.48046875 C-23.97741153 6.88602829 -23.97741153 6.88602829 -25 4 C-22.66666667 4 -20.33333333 4 -18 4 C-17.18789063 3.90460937 -16.37578125 3.80921875 -15.5390625 3.7109375 C-14.09660156 3.54464844 -14.09660156 3.54464844 -12.625 3.375 C-11.66851562 3.25898437 -10.71203125 3.14296875 -9.7265625 3.0234375 C-6.8358381 2.99858887 -5.42559741 3.49406038 -3 5 C-3 4.01 -3 3.02 -3 2 C-2.01 1.34 -1.02 0.68 0 0 Z " fill="#E75FAA" transform="translate(56,1)"/>
<path d="M0 0 C1.19109375 -0.00386719 1.19109375 -0.00386719 2.40625 -0.0078125 C4.5 0.125 4.5 0.125 6.5 1.125 C6.83 1.785 7.16 2.445 7.5 3.125 C10.02733235 3.78055119 10.02733235 3.78055119 12.5 4.125 C12.5 6.435 12.5 8.745 12.5 11.125 C8.625 12.125 8.625 12.125 7.5 12.125 C9.81 12.455 12.12 12.785 14.5 13.125 C14.5 13.785 14.5 14.445 14.5 15.125 C13.04257537 15.20596803 11.58387193 15.26417774 10.125 15.3125 C9.31289062 15.34730469 8.50078125 15.38210937 7.6640625 15.41796875 C6.94992188 15.32128906 6.23578125 15.22460938 5.5 15.125 C3.31955415 11.85433122 3.40142598 10.87081273 3.5 7.125 C3.17 6.795 2.84 6.465 2.5 6.125 C2.54125 7.23875 2.5825 8.3525 2.625 9.5 C2.5 13.125 2.5 13.125 0.5 15.125 C-2.125 14.75 -2.125 14.75 -4.5 14.125 C-4.5 11.815 -4.5 9.505 -4.5 7.125 C-5.49 6.795 -6.48 6.465 -7.5 6.125 C-7.125 3.6875 -7.125 3.6875 -6.5 1.125 C-4.13386544 -0.05806728 -2.63219264 -0.00854608 0 0 Z " fill="#F263B1" transform="translate(70.5,0.875)"/>
<path d="M0 0 C4.06028203 0 8.01795342 0.05923305 12.0625 0.4375 C12.96097656 0.51871094 13.85945313 0.59992187 14.78515625 0.68359375 C17 1 17 1 18 2 C18.04080783 3.99958364 18.04254356 6.00045254 18 8 C15.525 7.505 15.525 7.505 13 7 C13 7.33 13 7.66 13 8 C15.97 8.495 15.97 8.495 19 9 C18.67 9.66 18.34 10.32 18 11 C12.46153846 11.36923077 12.46153846 11.36923077 10.125 9.5 C9.75375 9.005 9.3825 8.51 9 8 C8.34 9.65 7.68 11.3 7 13 C5.68 13 4.36 13 3 13 C2.86722656 12.31292969 2.73445313 11.62585937 2.59765625 10.91796875 C2.42105469 10.01691406 2.24445312 9.11585937 2.0625 8.1875 C1.88847656 7.29417969 1.71445312 6.40085937 1.53515625 5.48046875 C1.02258847 2.88602829 1.02258847 2.88602829 0 0 Z " fill="#CD5496" transform="translate(31,5)"/>
<path d="M0 0 C-0.226875 0.598125 -0.45375 1.19625 -0.6875 1.8125 C-0.790625 2.534375 -0.89375 3.25625 -1 4 C0.35405861 5.60411246 0.35405861 5.60411246 2 7 C3.1577506 10.47325181 3.06866652 13.36067448 3 17 C2.34 17 1.68 17 1 17 C1 15.68 1 14.36 1 13 C0.01 13.66 -0.98 14.32 -2 15 C-3.32 15 -4.64 15 -6 15 C-5.98839844 14.24074219 -5.97679688 13.48148438 -5.96484375 12.69921875 C-5.95582031 11.70535156 -5.94679688 10.71148437 -5.9375 9.6875 C-5.92009766 8.20830078 -5.92009766 8.20830078 -5.90234375 6.69921875 C-5.87670138 3.90036151 -5.87670138 3.90036151 -7 1 C-4.53721199 -0.231394 -2.7204945 -0.07159196 0 0 Z " fill="#F264BB" transform="translate(31,1)"/>
<path d="M0 0 C0.66 0.99 1.32 1.98 2 3 C4.58380177 3.25030977 4.58380177 3.25030977 7 3 C6.67 4.32 6.34 5.64 6 7 C6.99 7.33 7.98 7.66 9 8 C9 8.66 9 9.32 9 10 C8.01 10 7.02 10 6 10 C5.34 11.32 4.68 12.64 4 14 C2.68 14 1.36 14 0 14 C-1.31164842 11.37670316 -1.13262846 9.36301375 -1.125 6.4375 C-1.12757812 5.44621094 -1.13015625 4.45492188 -1.1328125 3.43359375 C-1 1 -1 1 0 0 Z " fill="#8C3A67" transform="translate(3,2)"/>
<path d="M0 0 C2.25 2 2.25 2 2.625 5.125 C2.25 8 2.25 8 1.25 9 C-2.25 9.125 -2.25 9.125 -5.75 9 C-6.75 8 -6.75 8 -6.8125 4.4375 C-6.791875 3.303125 -6.77125 2.16875 -6.75 1 C-4.01362918 -0.92559428 -3.22437177 -1.17249883 0 0 Z " fill="#FC68BA" transform="translate(106.75,5)"/>
<path d="M0 0 C7.42857143 -0.28571429 7.42857143 -0.28571429 11 2 C11.1875 4.875 11.1875 4.875 11 8 C10.01 8.66 9.02 9.32 8 10 C6.68 9.34 5.36 8.68 4 8 C4.66 7.67 5.32 7.34 6 7 C6 6.01 6 5.02 6 4 C5.01 4.33 4.02 4.66 3 5 C2.34 4.67 1.68 4.34 1 4 C1 6.31 1 8.62 1 11 C0.67 11 0.34 11 0 11 C0 7.37 0 3.74 0 0 Z " fill="#F867B8" transform="translate(4,1)"/>
<path d="M0 0 C1.65 0 3.3 0 5 0 C4.67 1.65 4.34 3.3 4 5 C5.65 4.67 7.3 4.34 9 4 C8.34 6.97 7.68 9.94 7 13 C5.68 13 4.36 13 3 13 C2.86722656 12.31292969 2.73445313 11.62585937 2.59765625 10.91796875 C2.42105469 10.01691406 2.24445312 9.11585937 2.0625 8.1875 C1.88847656 7.29417969 1.71445312 6.40085937 1.53515625 5.48046875 C1.02258847 2.88602829 1.02258847 2.88602829 0 0 Z " fill="#F566B6" transform="translate(31,5)"/>
<path d="M0 0 C0 0.99 0 1.98 0 3 C-0.99 3.66 -1.98 4.32 -3 5 C-3.16666667 8.5 -3.16666667 8.5 -3 12 C-3.33 12.66 -3.66 13.32 -4 14 C-3.34 14.33 -2.68 14.66 -2 15 C-3.32 15 -4.64 15 -6 15 C-5.98839844 14.24074219 -5.97679688 13.48148438 -5.96484375 12.69921875 C-5.95582031 11.70535156 -5.94679688 10.71148437 -5.9375 9.6875 C-5.92009766 8.20830078 -5.92009766 8.20830078 -5.90234375 6.69921875 C-5.87670138 3.90036151 -5.87670138 3.90036151 -7 1 C-4.53721199 -0.231394 -2.7204945 -0.07159196 0 0 Z " fill="#7E345C" transform="translate(31,1)"/>
<path d="M0 0 C0.33 2.97 0.66 5.94 1 9 C-1.64 9 -4.28 9 -7 9 C-7 6 -7 6 -5 3 C-5 4.32 -5 5.64 -5 7 C-4.34 7 -3.68 7 -3 7 C-3 5.35 -3 3.7 -3 2 C-4.32 1.34 -5.64 0.68 -7 0 C-3.98968256 -0.93423645 -3.13349732 -1.04449911 0 0 Z " fill="#FD6CC1" transform="translate(51,5)"/>
<path d="M0 0 C0.99 0.33 1.98 0.66 3 1 C3 4.3 3 7.6 3 11 C-4.875 10.125 -4.875 10.125 -6 9 C-6.04092937 6.66702567 -6.04241723 4.33294775 -6 2 C-5.67 2 -5.34 2 -5 2 C-4.67 3.98 -4.34 5.96 -4 8 C-2.68 8 -1.36 8 0 8 C0 5.36 0 2.72 0 0 Z " fill="#FE70C7" transform="translate(83,4)"/>
<path d="M0 0 C0.66 0 1.32 0 2 0 C2 3.63 2 7.26 2 11 C4.97 11 7.94 11 11 11 C10.67 11.66 10.34 12.32 10 13 C8.52093108 13.02689216 7.04172517 13.04634621 5.5625 13.0625 C4.32693359 13.07990234 4.32693359 13.07990234 3.06640625 13.09765625 C1 13 1 13 0 12 C-0.07244053 9.98035801 -0.08377188 7.95832876 -0.0625 5.9375 C-0.05347656 4.83277344 -0.04445313 3.72804688 -0.03515625 2.58984375 C-0.02355469 1.73519531 -0.01195313 0.88054687 0 0 Z " fill="#391729" transform="translate(86,3)"/>
<path d="M0 0 C1.65 0.33 3.3 0.66 5 1 C5 3.31 5 5.62 5 8 C3.68 8.33 2.36 8.66 1 9 C-1.125 2.25 -1.125 2.25 0 0 Z " fill="#C5508F" transform="translate(78,4)"/>
<path d="M0 0 C0.99 0 1.98 0 3 0 C4.31626692 3.61973402 5 6.09567131 5 10 C5.66 10 6.32 10 7 10 C7 10.66 7 11.32 7 12 C5.68 11.67 4.36 11.34 3 11 C3 9.68 3 8.36 3 7 C1.68 7 0.36 7 -1 7 C-1.04254356 5.00045254 -1.04080783 2.99958364 -1 1 C-0.67 0.67 -0.34 0.34 0 0 Z " fill="#D55599" transform="translate(89,1)"/>
<path d="M0 0 C0.99 0 1.98 0 3 0 C3.66 2.31 4.32 4.62 5 7 C7.31 7.33 9.62 7.66 12 8 C12 8.66 12 9.32 12 10 C10.54257537 10.08096803 9.08387193 10.13917774 7.625 10.1875 C6.81289062 10.22230469 6.00078125 10.25710937 5.1640625 10.29296875 C4.44992188 10.19628906 3.73578125 10.09960938 3 10 C0.80882895 6.71324342 0.90347424 5.76450466 1 2 C0.67 1.34 0.34 0.68 0 0 Z " fill="#1B0A13" transform="translate(73,6)"/>
<path d="M0 0 C0.66 0 1.32 0 2 0 C2 0.99 2 1.98 2 3 C2.99 3 3.98 3 5 3 C5.07347656 3.95712891 5.07347656 3.95712891 5.1484375 4.93359375 C5.22320312 5.75988281 5.29796875 6.58617187 5.375 7.4375 C5.44460937 8.26121094 5.51421875 9.08492187 5.5859375 9.93359375 C5.72257812 10.61550781 5.85921875 11.29742187 6 12 C6.66 12.33 7.32 12.66 8 13 C6.35 12.67 4.7 12.34 3 12 C3 9.69 3 7.38 3 5 C2.01 4.67 1.02 4.34 0 4 C0 2.68 0 1.36 0 0 Z " fill="#13070D" transform="translate(63,3)"/>
<path d="M0 0 C2.5 1.125 2.5 1.125 5 3 C5.3125 6.1875 5.3125 6.1875 5 9 C3.35 8.67 1.7 8.34 0 8 C0 6 0 6 1 5 C0.34 5 -0.32 5 -1 5 C-0.67 3.35 -0.34 1.7 0 0 Z " fill="#D15496" transform="translate(104,4)"/>
<path d="M0 0 C0.66 0 1.32 0 2 0 C2.33 1.98 2.66 3.96 3 6 C5.97 6.495 5.97 6.495 9 7 C8.67 7.66 8.34 8.32 8 9 C5.125 9.125 5.125 9.125 2 9 C0 7 0 7 -0.125 3.375 C-0.08375 2.26125 -0.0425 1.1475 0 0 Z " fill="#3B182A" transform="translate(98,7)"/>
<path d="M0 0 C0.66 0 1.32 0 2 0 C2.4125 1.093125 2.825 2.18625 3.25 3.3125 C4.60285591 6.51015942 5.94055844 8.20653426 9 10 C6.6875 10.3125 6.6875 10.3125 4 10 C1.49616713 6.87020891 0.5619765 3.93383553 0 0 Z " fill="#1C0B13" transform="translate(51,6)"/>
<path d="M0 0 C0.33 0 0.66 0 1 0 C1.66 1.98 2.32 3.96 3 6 C5.97 6.495 5.97 6.495 9 7 C8.67 7.66 8.34 8.32 8 9 C2.6179402 9.35880399 2.6179402 9.35880399 0.0625 7.875 C-1.52513015 5.07329973 -0.74070176 3.03014356 0 0 Z " fill="#210D18" transform="translate(41,7)"/>
<path d="M0 0 C1.98 0.66 3.96 1.32 6 2 C6 3.32 6 4.64 6 6 C4.35 5.67 2.7 5.34 1 5 C0.67 3.35 0.34 1.7 0 0 Z " fill="#F363B6" transform="translate(55,9)"/>
<path d="M0 0 C2.31 0.33 4.62 0.66 7 1 C7.33 2.32 7.66 3.64 8 5 C5.36 4.67 2.72 4.34 0 4 C0 2.68 0 1.36 0 0 Z " fill="#F36BBF" transform="translate(16,10)"/>
<path d="M0 0 C0.66 0 1.32 0 2 0 C3.99785435 4.1205746 4.17835515 7.45194365 4 12 C3.34 12 2.68 12 2 12 C1.855625 10.948125 1.71125 9.89625 1.5625 8.8125 C1.12473034 5.84539451 0.62195134 2.93205634 0 0 Z " fill="#1F0C16" transform="translate(30,6)"/>
<path d="M0 0 C0.99 1.485 0.99 1.485 2 3 C2.66 2.67 3.32 2.34 4 2 C4 2.66 4 3.32 4 4 C5.32 4 6.64 4 8 4 C8 4.66 8 5.32 8 6 C5.66705225 6.04241723 3.33297433 6.04092937 1 6 C0 5 0 5 -0.0625 2.4375 C-0.041875 1.633125 -0.02125 0.82875 0 0 Z " fill="#FD6FC5" transform="translate(100,8)"/>
<path d="M0 0 C1.65 0 3.3 0 5 0 C4.67 1.65 4.34 3.3 4 5 C3.34 5 2.68 5 2 5 C1.34 3.35 0.68 1.7 0 0 Z " fill="#FB6ABF" transform="translate(31,5)"/>
</svg>
